PathFileType	4	(X/Y/Z)	C:/Users/opensim2020/Desktop/walking_exp_matlab/subject02_walking04_straight_04.trc																																																																																																																												
DataRate	CameraRate	NumFrames	NumMarkers	Units	OrigDataRate	OrigDataStartFrame	OrigNumFrames																																																																																																																								
100	100	7	42	mm	100	2953	239																																																																																																																								
Frame#	Time	LFHD			RFHD			LBHD			RBHD			C7			T10			CLAV			STRN			RBAK			LSHO			LUPA			LELB			LFRM			LWRA			LWRB			LFIN			RSHO			RUPA			RELB			RFRM			RWRA			RWRB			RFIN			LASI			RASI			LPSI			RPSI			LTHI			LKNE			LTIB			LANK			LHEE			LTOE			RTHI			RKNE			RTIB			RANK			RHEE			RTOE			*39			*40			*41		
		X1	Y1	Z1	X2	Y2	Z2	X3	Y3	Z3	X4	Y4	Z4	X5	Y5	Z5	X6	Y6	Z6	X7	Y7	Z7	X8	Y8	Z8	X9	Y9	Z9	X10	Y10	Z10	X11	Y11	Z11	X12	Y12	Z12	X13	Y13	Z13	X14	Y14	Z14	X15	Y15	Z15	X16	Y16	Z16	X17	Y17	Z17	X18	Y18	Z18	X19	Y19	Z19	X20	Y20	Z20	X21	Y21	Z21	X22	Y22	Z22	X23	Y23	Z23	X24	Y24	Z24	X25	Y25	Z25	X26	Y26	Z26	X27	Y27	Z27	X28	Y28	Z28	X29	Y29	Z29	X30	Y30	Z30	X31	Y31	Z31	X32	Y32	Z32	X33	Y33	Z33	X34	Y34	Z34	X35	Y35	Z35	X36	Y36	Z36	X37	Y37	Z37	X38	Y38	Z38	X39	Y39	Z39	X40	Y40	Z40	X41	Y41	Z41	X42	Y42	Z42
																																																																																																																															
30	0.29	-760.86908	1733.88611	-1446.90393	-771.74396	1716.63489	-1304.42053	-893.95215	1664.80383	-1463.22974	-916.82837	1647.40979	-1322.88184	-959.65472	1528.54602	-1378.93506	-1022.65686	1254.17908	-1356.82751	-824.47333	1451.81116	-1400.57043	-776.58575	1280.61084	-1384.40112	-1017.45734	1360.68677	-1298.45654	-912.10852	1490.57422	-1562.03064	-968.77295	1295.0011	-1632.43774	-995.52576	1156.08447	-1639.85181	-998.78064	1022.68451	-1651.23669	-944.30292	894.5069	-1630.58264	-996.95679	899.53052	-1651.88684	-982.23096	834.76715	-1658.31165	-864.10834	1501.45959	-1202.04407	-856.62903	1320.44226	-1098.09448	-806.67535	1182.1781	-1065.49548	-735.07629	1083.66455	-1053.47827	-647.10876	984.92035	-1081.34497	-683.69269	964.55481	-1042.10266	-622.49957	924.7879	-1045.11707	-795.80298	993.01239	-1498.98267	-788.46741	974.664	-1241.2926	-1003.75238	1031.71277	-1409.92456	-1004.80841	1031.55273	-1296.00378	-806.67493	693.27338	-1578.84741	-759.65448	499.39578	-1560.13684	-758.6626	306.1926	-1567.76245	-684.75366	91.64265	-1562.43555	-700.42145	59.36833	-1505.56055	-528.44006	78.98457	-1593.90527	-895.00574	667.95856	-1193.16858	-932.53088	461.45663	-1243.57117	-1004.00079	286.61761	-1237.776	-1056.79358	100.14176	-1280.35718	-1103.15991	48.11104	-1332.98145	-909.14642	41.44629	-1279.37952	-865.20227	1804.85449	-1363.91223	-2845.17578	1033.71606	3360.28857	NaN	NaN	NaN
31	0.3	-752.36536	1732.3092	-1448.92407	-763.22314	1715.17859	-1306.42407	-885.47028	1663.27905	-1465.12	-908.32074	1646.02039	-1324.73914	-951.14886	1527.02051	-1380.91003	-1014.15643	1252.6416	-1359.15747	-815.74432	1450.11462	-1401.93689	-767.80457	1279.1853	-1385.854	-1008.9303	1359.01392	-1300.71692	-903.09332	1489.07324	-1563.9248	-960.7691	1293.96606	-1634.60437	-988.28632	1155.0907	-1641.45093	-993.79614	1021.99384	-1653.15991	-941.78571	893.01453	-1632.56604	-994.08209	898.6806	-1653.99561	-980.70941	833.61646	-1660.29944	-855.9903	1499.88831	-1203.82043	-846.56079	1318.90405	-1099.65247	-796.41425	1181.09546	-1067.20886	-723.50415	1083.29126	-1055.14612	-634.15674	986.04205	-1083.28418	-670.9726	964.9516	-1044.44397	-609.08368	926.02295	-1047.27087	-785.76471	991.77197	-1499.50073	-779.68085	973.54315	-1242.11072	-994.61786	1029.80994	-1412.26953	-996.20154	1029.76367	-1298.30554	-797.0119	692.4353	-1580.74585	-749.22107	497.95648	-1561.66626	-743.61963	305.20715	-1571.26172	-663.63373	91.82006	-1565.81824	-680.36133	59.1923	-1510.50757	-506.48151	83.47372	-1592.99292	-889.18555	667.05249	-1194.13269	-928.07904	460.78146	-1244.30542	-1001.80505	286.91592	-1238.47327	-1056.26099	100.78561	-1280.83118	-1102.90979	49.09738	-1333.78345	-909.08228	41.46904	-1279.24731	-856.63953	1803.4834	-1365.97363	-2845.23486	1033.6521	3360.18359	NaN	NaN	NaN
32	0.31	-743.76776	1730.69824	-1451.01245	-754.60773	1713.71509	-1308.46692	-876.922	1661.72693	-1467.11694	-899.74976	1644.59216	-1326.64783	-942.6203	1525.43005	-1382.9834	-1005.55249	1251.04712	-1361.53333	-807.14819	1448.58557	-1403.70923	-761.81519	1277.13525	-1387.29944	-1000.30853	1357.29724	-1302.90051	-894.0918	1487.54724	-1566.12744	-952.26764	1292.48438	-1636.41028	-981.12122	1154.27039	-1643.63354	-988.58447	1021.26935	-1655.31128	-938.90778	891.16718	-1634.74426	-990.96991	898.07532	-1656.36987	-978.85376	832.60571	-1662.44055	-847.8335	1498.31738	-1205.69031	-838.13965	1317.19067	-1101.69629	-786.38214	1179.83984	-1069.04016	-712.62433	1082.95117	-1057.38464	-621.82062	987.03821	-1085.302	-658.01428	965.08075	-1047.3241	-596.2522	927.03546	-1049.39185	-775.60486	990.39899	-1499.88696	-771.62543	972.15613	-1242.60828	-985.43945	1027.93616	-1414.60522	-987.41913	1027.89661	-1300.69336	-786.32532	691.31744	-1582.50049	-738.71552	496.63571	-1563.10107	-729.3858	304.1434	-1574.20935	-644.36688	92.2598	-1569.10461	-661.88092	58.55256	-1514.32813	-486.52682	87.22974	-1592.30066	-883.03381	666.22882	-1194.9408	-923.62891	460.30817	-1245.01355	-999.47485	287.30719	-1239.21069	-1055.77576	101.53351	-1281.35535	-1102.34802	49.93106	-1334.48474	-909.00482	41.4148	-1279.0968	-847.98993	1801.96362	-1368.07275	-2845.13672	1033.77368	3360.11084	NaN	NaN	NaN
33	0.32	-735.19171	1729.24463	-1453.23853	-745.89215	1712.2865	-1310.60498	-868.34302	1660.18799	-1469.18152	-891.22717	1643.22253	-1328.6947	-934.02557	1523.84009	-1385.13306	-996.87335	1249.45654	-1363.95605	-798.50916	1447.22144	-1405.85901	-752.87805	1275.56543	-1388.73511	-991.97717	1355.68835	-1305.42383	-884.92358	1485.88025	-1568.23315	-943.88617	1291.16333	-1638.62585	-973.61072	1153.09241	-1645.53052	-983.12439	1020.51331	-1657.55286	-935.56073	889.57471	-1636.83716	-987.45795	897.3949	-1658.88245	-976.64417	831.60095	-1664.59607	-839.53162	1496.64331	-1207.6416	-828.651	1315.56238	-1103.76611	-776.75348	1178.47937	-1070.94226	-702.09442	1082.23499	-1059.33667	-609.76208	987.68909	-1087.4491	-646.17926	964.9856	-1049.53406	-583.78619	927.93091	-1051.72424	-765.46674	989.35205	-1500.94653	-763.21155	970.71851	-1243.44299	-976.1557	1026.1084	-1417.08936	-978.58154	1026.01575	-1303.15454	-775.01874	690.59479	-1584.38293	-728.1322	495.25409	-1564.45557	-715.96655	302.96558	-1576.61963	-627.2431	92.63414	-1572.15271	-645.22815	57.92081	-1517.96179	-468.90598	90.1548	-1592.05957	-876.96552	665.54999	-1196.00623	-918.83264	459.92657	-1245.47754	-997.08942	287.77252	-1239.9502	-1055.23328	102.3741	-1281.93579	-1101.99951	51.24387	-1335.36011	-908.92084	41.33461	-1278.92529	-839.35767	1800.48206	-1370.24451	-2845.77368	1033.9563	3357.31689	NaN	NaN	NaN
34	0.33	-726.49933	1727.63403	-1455.33704	-737.16486	1710.74573	-1312.54675	-859.67902	1658.65625	-1471.28467	-882.4798	1641.75146	-1330.78125	-925.42322	1522.29407	-1387.34668	-988.11261	1247.90967	-1366.47192	-789.77112	1445.7085	-1407.83032	-744.25836	1274.29785	-1390.63379	-983.47516	1354.08813	-1307.91736	-875.81506	1484.36182	-1570.44812	-935.44287	1289.95325	-1641.0957	-966.11267	1152.16138	-1647.95972	-977.3985	1019.6806	-1659.86841	-931.97266	887.87219	-1638.74536	-983.62524	896.78754	-1661.53516	-973.95953	830.58984	-1666.88745	-831.15424	1495.16724	-1209.62305	-819.48138	1313.9021	-1105.91565	-767.19788	1177.11194	-1073.07153	-691.30072	1081.60547	-1061.5968	-598.11121	988.04468	-1089.46484	-634.39948	964.72388	-1052.03467	-572.17816	928.42212	-1054.19189	-755.25891	988.21887	-1502.07922	-754.69043	969.24414	-1244.36206	-966.78961	1024.35291	-1419.65894	-969.57068	1024.10486	-1305.79382	-762.65009	689.55646	-1585.81848	-717.50714	493.97183	-1565.83105	-703.39478	302.04214	-1579.10071	-612.39148	92.76004	-1574.87817	-630.61963	57.19929	-1521.10925	-453.6058	92.03148	-1592.22241	-870.59668	664.82336	-1197.20764	-913.87317	459.332	-1246.24561	-994.58185	288.28851	-1240.67322	-1054.58154	103.51318	-1282.51343	-1101.65649	52.83511	-1336.15491	-908.79742	41.28659	-1278.76184	-830.66779	1799.06787	-1372.45313	-2845.09106	1033.63257	3360.08081	NaN	NaN	NaN
35	0.34	-717.74719	1726.18518	-1457.64307	-728.46155	1709.51086	-1314.98071	-850.93451	1657.19446	-1473.48206	-873.7168	1640.37952	-1332.91504	-916.76221	1520.84119	-1389.62976	-979.23206	1246.4198	-1368.98389	-781.01202	1444.24072	-1409.87183	-735.4762	1272.93835	-1392.48584	-974.78546	1352.58337	-1310.39771	-866.63013	1482.77478	-1572.70056	-926.75806	1288.53455	-1643.44312	-958.29913	1151.07458	-1650.28467	-971.35834	1018.94336	-1662.33423	-928.01416	886.24158	-1640.97839	-979.37634	896.05505	-1664.20874	-970.84271	829.63995	-1669.27051	-822.6676	1493.6322	-1211.77625	-811.1637	1312.26404	-1108.28394	-757.8717	1175.66687	-1075.34058	-681.42084	1080.82947	-1064.2146	-586.78351	988.4624	-1091.57068	-623.44904	964.38452	-1055.13708	-560.30811	929.05109	-1056.68982	-745.00055	987.12262	-1503.39124	-745.98077	967.80548	-1245.51355	-957.33832	1022.68115	-1422.25793	-960.54541	1022.28943	-1308.50378	-749.93933	689.03613	-1587.29333	-706.67517	492.85889	-1567.37354	-691.48584	301.1788	-1581.44543	-599.14191	92.04522	-1576.55188	-618.54358	55.96069	-1524.38159	-440.63004	92.92567	-1592.73193	-864.03497	664.19745	-1198.46387	-908.55731	458.9082	-1247.19153	-991.74451	288.92667	-1241.50928	-1053.828	104.64104	-1283.09021	-1100.9928	54.28626	-1336.9397	-908.64069	41.19848	-1278.59314	-821.95142	1797.71851	-1374.84399	-2845.78101	1033.96179	3357.28125	NaN	NaN	NaN
36	0.35	-708.92822	1724.74878	-1459.92651	-719.62476	1708.15564	-1317.29187	-842.16431	1655.84595	-1475.7583	-864.94916	1639.12268	-1335.19604	-907.9989	1519.45117	-1391.94348	-970.263	1244.93457	-1371.57776	-772.20068	1442.85266	-1412.01672	-726.55573	1271.63513	-1394.4635	-965.95679	1351.03687	-1312.77014	-857.46753	1481.28369	-1575.10486	-918.06177	1287.15918	-1645.97449	-950.15082	1149.82092	-1652.36853	-965.12494	1018.31305	-1665.14014	-923.88867	884.97046	-1643.58264	-974.71259	895.28156	-1666.87476	-967.3139	828.77814	-1671.82227	-814.10358	1492.12561	-1213.93225	-802.37518	1310.59644	-1110.63452	-748.79614	1174.17261	-1077.69788	-671.50665	1079.79675	-1066.78821	-575.81171	988.45361	-1093.90405	-612.62018	963.7326	-1058.1106	-549.27551	929.20782	-1059.11682	-734.65997	986.06671	-1505.06116	-737.08386	966.4624	-1246.92542	-947.78168	1021.09991	-1424.91931	-951.39008	1020.54059	-1311.38269	-736.79065	688.49573	-1588.54321	-695.62408	491.92429	-1569.03528	-680.32965	300.1937	-1583.41199	-588.41626	91.40405	-1578.4248	-607.57721	54.58736	-1525.52795	-429.95364	92.72633	-1593.46008	-857.2254	663.59534	-1199.83997	-902.5874	458.22433	-1247.65833	-988.71326	289.60681	-1242.36194	-1053.05933	106.10519	-1283.5592	-1100.49658	56.23476	-1337.53589	-908.43622	41.11563	-1278.39734	-813.04218	1796.33936	-1377.10352	-2845.20044	1033.61877	3360.30811	NaN	NaN	NaN
